[center][img]http://img692.imageshack.us/img692/5646/duedatever2.jpg[/img]

[img]http://leetleech.org/images/48874973695367351744.png[/img]

Format                           : AVI
Format/Info                      : Audio Video Interleave
File size                        : 918 MiB
Duration                         : 1h 35mn
Overall bit rate                 : 1 348 Kbps
Writing application              : VirtualDubMod 1.5.10.2 (build 2540/release)
Writing library                  : VirtualDub build 32839/release

Video
ID                               : 0
Format                           : MPEG-4 Visual
Format profile                   : Advanced Simple@L5
Format settings, BVOP            : Yes
Format settings, QPel            : No
Format settings, GMC             : No warppoints
Format settings, Matrix          : Custom
Codec ID                         : XVID
Codec ID/Hint                    : XviD
Duration                         : 1h 35mn
Bit rate                         : 1 213 Kbps
Width                            : 672 pixels
Height                           : 312 pixels
Display aspect ratio             : 2.2:1
Frame rate                       : 23.976 fps
Color space                      : YUV
Chroma subsampling               : 4:2:0
Bit depth                        : 8 bits
Scan type                        : Progressive
Bits/(Pixel*Frame)               : 0.241
Stream size                      : 826 MiB (90%)
Writing library                  : XviD 1.2.1 (UTC 2008-12-04)

Audio
ID                               : 1
Format                           : MPEG Audio
Format version                   : Version 1
Format profile                   : Layer 3
Mode                             : Joint stereo
Mode extension                   : MS Stereo
Codec ID                         : 55
Codec ID/Hint                    : MP3
Duration                         : 1h 35mn
Bit rate mode                    : Variable
Bit rate                         : 122 Kbps
Nominal bit rate                 : 129 Kbps
Channel(s)                       : 2 channels
Sampling rate                    : 48.0 KHz
Stream size                      : 83.3 MiB (9%)
Alignment                        : Aligned on interleaves
Interleave, duration             : 24 ms (0.58 video frame)
Interleave, preload duration     : 483 ms
Writing library                  : LAME3.98b
Encoding settings                : -m j -V 4 -q 3 -lowpass 17 --abr 129

[url]http://www.imdb.com/title/tt1231583/[/url]

Users: 7.0/10 (16,562 votes) 125 reviews | Critics: 202 reviews Metascore: 51/100 (based on 39 reviews from Metacritic.com)

High-strung father-to-be Peter Highman is forced to hitch a ride with aspiring actor Ethan Tremblay on a road trip in order to make it to his child's birth on time.
Director:
Todd Phillips
Writers:
Alan R. Cohen (screenplay), Alan Freedland (screenplay), and 4 more credits »
Stars:
Robert Downey Jr., Zach Galifianakis and Michelle Monaghan 


[img]http://leetleech.org/images/95521316153253938506.png[/img]



[img]http://img13.imageshack.us/img13/3319/vlcsnap2011013017h35m25.png[/img]
[img]http://img138.imageshack.us/img138/7301/vlcsnap2011013017h36m02.png[/img]
[img]http://img839.imageshack.us/img839/1939/vlcsnap2011013017h37m10.png[/img]


Greetz to Imagine ,Flawl3ss ,Santi ,Vision ,Kingdom,BDK,DiGiTALiNK,LEGION,Classified,THC,WBZ,Rx ,Feel Free and to all who share


[img]http://img411.imageshack.us/img411/6898/sig1n.jpg[/img]


